<svg xmlns="http://www.w3.org/2000/svg" viewBox="0 0 320 150" preserveAspectRatio="xMidYMid slice" role="img">
<rect width="320" height="150" fill="#f4f6fa"/>
<rect x="20" y="16" width="120" height="60" rx="8" fill="#fff" stroke="#e0e5ef"/><rect x="32" y="46" width="12" height="20" rx="3" fill="#063381"/><rect x="52" y="32" width="12" height="34" rx="3" fill="#063381"/><rect x="72" y="40" width="12" height="26" rx="3" fill="#063381"/><rect x="92" y="22" width="12" height="44" rx="3" fill="#E00613"/><rect x="112" y="36" width="12" height="30" rx="3" fill="#063381"/><rect x="150" y="16" width="150" height="60" rx="8" fill="#fff" stroke="#e0e5ef"/><polyline points="162,62 190,44 214,52 240,30 268,40 290,26" fill="none" stroke="#063381" stroke-width="3" stroke-linecap="round" stroke-linejoin="round"/><circle cx="290" cy="26" r="4" fill="#E00613"/><rect x="20" y="86" width="90" height="50" rx="8" fill="#04205a"/><text x="32" y="106" font-family="Poppins,sans-serif" font-size="9" fill="#fff" opacity=".8">TOTAL</text><text x="32" y="126" font-family="Poppins,sans-serif" font-size="17" font-weight="700" fill="#fff">98,4%</text><rect x="120" y="86" width="180" height="50" rx="8" fill="#fff" stroke="#e0e5ef"/><circle cx="150" cy="111" r="16" fill="none" stroke="#e8edf6" stroke-width="8"/><circle cx="150" cy="111" r="16" fill="none" stroke="#2b56a6" stroke-width="8" stroke-dasharray="70 100" transform="rotate(-90 150 111)"/><rect x="178" y="98" width="100" height="6" rx="3" fill="#e8edf6"/><rect x="178" y="110" width="75" height="6" rx="3" fill="#e8edf6"/><rect x="178" y="122" width="50" height="6" rx="3" fill="#e8edf6"/>
</svg>
