<svg xmlns="http://www.w3.org/2000/svg" viewBox="0 0 320 150" preserveAspectRatio="xMidYMid slice" role="img">
<rect width="320" height="150" fill="#f4f6fa"/>
<path d="M30 58 h26 l8 -8 h44 a6 6 0 0 1 6 6 v70 a6 6 0 0 1 -6 6 h-78 a6 6 0 0 1 -6 -6 z" fill="#2b56a6"/><rect x="36" y="70" width="70" height="58" rx="4" fill="#fff" opacity=".92"/><rect x="44" y="80" width="54" height="4" rx="2" fill="#e8edf6"/><rect x="44" y="90" width="46" height="4" rx="2" fill="#e8edf6"/><rect x="44" y="100" width="38" height="4" rx="2" fill="#e8edf6"/><rect x="44" y="110" width="30" height="4" rx="2" fill="#e8edf6"/><path d="M70 46 h26 l8 -8 h44 a6 6 0 0 1 6 6 v70 a6 6 0 0 1 -6 6 h-78 a6 6 0 0 1 -6 -6 z" fill="#063381"/><rect x="76" y="58" width="70" height="58" rx="4" fill="#fff" opacity=".92"/><rect x="84" y="68" width="54" height="4" rx="2" fill="#e8edf6"/><rect x="84" y="78" width="46" height="4" rx="2" fill="#e8edf6"/><rect x="84" y="88" width="38" height="4" rx="2" fill="#e8edf6"/><rect x="84" y="98" width="30" height="4" rx="2" fill="#e8edf6"/><path d="M110 34 h26 l8 -8 h44 a6 6 0 0 1 6 6 v70 a6 6 0 0 1 -6 6 h-78 a6 6 0 0 1 -6 -6 z" fill="#04205a"/><rect x="116" y="46" width="70" height="58" rx="4" fill="#fff" opacity=".92"/><rect x="124" y="56" width="54" height="4" rx="2" fill="#e8edf6"/><rect x="124" y="66" width="46" height="4" rx="2" fill="#e8edf6"/><rect x="124" y="76" width="38" height="4" rx="2" fill="#e8edf6"/><rect x="124" y="86" width="30" height="4" rx="2" fill="#e8edf6"/><circle cx="250" cy="70" r="40" fill="#E00613"/><path d="M250 46 l7 15 16 2 -12 11 3 16 -14 -8 -14 8 3 -16 -12 -11 16 -2z" fill="#fff"/>
</svg>
